# xmcd
#
# Track frame offsets: 
#        182
#        25742
#        49825
#        73605
#        97447
#        122122
#        143470
#        161142
#        176600
#        211885
#        232325
#
# Disc length: 3432 seconds
#
# Revision: 2
# Processed by: cddbd v1.5.2PL0 Copyright (c) Steve Scherf et al.
# Submitted via: ExactAudioCopy v0.99pb5
#
DISCID=a20d660b
DTITLE=Buddy Guy - Heavy Love
DYEAR=1900
DGENRE=
TTITLE0=Heavy Love
TTITLE1=Midnight Train
TTITLE2=I Got A Problem
TTITLE3=I Need Your Tonight
TTITLE4=Saturday Night Fish Fry
TTITLE5=Had A Bad Night
TTITLE6=Are You Lonely For Me Baby
TTITLE7=I Just Want To Make Love To You
TTITLE8=Did Somebody Make A Fool Out Of You
TTITLE9=When The Time Is Right
TTITLE10=Le Me Show You
EXTD=1998 Silvertone Records Ltd.
EXTT0=
EXTT1=
EXTT2=
EXTT3=
EXTT4=
EXTT5=
EXTT6=
EXTT7=
EXTT8=
EXTT9=
EXTT10=
PLAYORDER=
